<svg xmlns="http://www.w3.org/2000/svg" viewBox="0 0 120 120" fill="none">
  <defs>
    <linearGradient id="t" x1="0" y1="0" x2="1" y2="1"><stop offset="0" stop-color="#14223d"/><stop offset=".55" stop-color="#0c1528"/><stop offset="1" stop-color="#070c17"/></linearGradient>
    <linearGradient id="r" x1="0" y1="0" x2="1" y2="1"><stop offset="0" stop-color="#93c5fd"/><stop offset=".5" stop-color="#1d4ed8"/><stop offset="1" stop-color="#60a5fa"/></linearGradient>
    <linearGradient id="i" gradientUnits="userSpaceOnUse" x1="0" y1="40" x2="0" y2="80"><stop offset="0" stop-color="#ffffff"/><stop offset="1" stop-color="#c3d0e4"/></linearGradient>
    <radialGradient id="g" cx=".83" cy=".2" r=".55"><stop offset="0" stop-color="#3b82f6" stop-opacity=".45"/><stop offset="1" stop-color="#3b82f6" stop-opacity="0"/></radialGradient>
  </defs>
  <rect x="1" y="1" width="118" height="118" rx="28" fill="url(#t)"/>
  <rect x="1" y="1" width="118" height="118" rx="28" fill="url(#g)"/>
  <rect x="1.75" y="1.75" width="116.5" height="116.5" rx="27.25" stroke="url(#r)" stroke-width="1.5"/>
  <rect x="9" y="9" width="102" height="102" rx="21" stroke="#e6ecf5" stroke-opacity=".08"/>
  <g stroke="url(#i)" stroke-width="7" stroke-linecap="round" stroke-linejoin="round">
    <path d="M71 42 H31 a9 9 0 0 0 0 18 h2 a9 9 0 0 1 0 18 H21"/>
    <path d="M60 42 V78"/>
    <path d="M78 78 V42 L99 78 V42"/>
  </g>
  <circle cx="99" cy="27" r="8.5" stroke="#4f8dff" stroke-opacity=".45"/>
  <circle cx="99" cy="27" r="4.6" fill="#4f8dff"/>
  <path d="M53 92 H67" stroke="#3b82f6" stroke-width="2" stroke-linecap="round"/>
</svg>
